<svg width="172" height="170" viewBox="0 0 172 170" fill="none" xmlns="http://www.w3.org/2000/svg">
<g clip-path="url(#clip0_2_13)">
<path d="M170.798 65.2402C169.835 62.297 167.214 60.1515 164.121 59.7743L114.164 53.6822L92.892 8.38246C91.575 5.57779 88.7103 3.7659 85.5944 3.7659C82.4782 3.7659 79.6138 5.57813 78.2968 8.38246L75.6765 13.9626C75.0813 15.2303 75.6337 16.7374 76.9099 17.3287C78.1861 17.9197 79.7044 17.3712 80.2996 16.1039L82.9196 10.5234C83.4021 9.49576 84.4519 8.83137 85.5941 8.83137C86.7359 8.83137 87.7858 9.49576 88.2686 10.5234L110.138 57.0954C110.51 57.887 111.266 58.4325 112.139 58.5388L163.499 64.8019C164.632 64.9403 165.593 65.7266 165.946 66.8054C166.299 67.8838 165.987 69.0804 165.152 69.8541L127.308 104.9C126.665 105.496 126.376 106.379 126.544 107.236L136.417 157.678C136.635 158.792 136.179 159.942 135.255 160.609C134.747 160.975 134.147 161.168 133.52 161.168C133.021 161.168 132.527 161.041 132.09 160.801L86.8312 135.888C86.0615 135.465 85.1273 135.465 84.3583 135.888L39.0999 160.8C38.1012 161.35 36.8584 161.275 35.9346 160.608C35.0108 159.941 34.5544 158.792 34.7721 157.679L44.6448 107.236C44.8124 106.379 44.5238 105.496 43.8808 104.901L6.03641 69.8537C5.2012 69.0804 4.88925 67.8838 5.24232 66.8054C5.5954 65.7266 6.55566 64.9403 7.68912 64.8019L59.0494 58.5388C59.1508 58.5265 59.2491 58.5066 59.3457 58.4833C59.3718 58.477 59.3978 58.4687 59.4236 58.4617C59.4965 58.4418 59.5674 58.4189 59.6372 58.393C59.6626 58.3834 59.6881 58.3738 59.7131 58.3635C59.7887 58.3323 59.8619 58.2981 59.9335 58.2605C59.9489 58.2526 59.9646 58.2456 59.9793 58.2373C60.0669 58.1888 60.1521 58.1357 60.2327 58.0776C60.2411 58.0716 60.2488 58.0646 60.2571 58.0583C60.3263 58.0072 60.3925 57.9527 60.4557 57.8953C60.4771 57.876 60.4975 57.8558 60.5186 57.8355C60.5694 57.7864 60.6179 57.7349 60.664 57.6818C60.6831 57.6599 60.7025 57.639 60.7209 57.6164C60.7817 57.5417 60.8392 57.4643 60.8914 57.3833C60.8947 57.378 60.8974 57.3724 60.9004 57.367C60.9496 57.2887 60.9937 57.2077 61.0342 57.1243C61.0388 57.1147 61.0452 57.1061 61.0499 57.0964L74.4835 28.4886C75.0787 27.2209 74.5263 25.7135 73.2501 25.1225C71.9739 24.5318 70.4559 25.08 69.8604 26.3473L57.0243 53.6828L7.06756 59.7743C3.97446 60.1515 1.3538 62.297 0.391193 65.2402C-0.571744 68.1833 0.278516 71.4488 2.5578 73.5589L39.3677 107.648L29.7645 156.712C29.17 159.75 30.4151 162.888 32.9361 164.706C35.4572 166.526 38.8472 166.732 41.5728 165.231L85.5944 141L129.616 165.231C130.808 165.887 132.158 166.234 133.52 166.234C135.231 166.234 136.868 165.706 138.253 164.707C140.774 162.888 142.019 159.75 141.424 156.712L131.821 107.648L168.631 73.5592C170.91 71.4485 171.761 68.183 170.798 65.2402Z" fill="#FC8801"/>
<path d="M152.499 73.5579C153.224 72.8865 153.491 71.8592 153.186 70.9229C152.88 69.9866 152.054 69.3115 151.071 69.1917L108.393 63.9868C107.377 63.8629 106.511 63.2387 106.078 62.3166L87.9061 23.6181C87.4872 22.7259 86.5857 22.1558 85.5947 22.1558C84.6037 22.1558 83.7023 22.7259 83.2833 23.6181L65.1113 62.3166C64.6783 63.2384 63.8133 63.8626 62.7962 63.9868L20.1187 69.1917C19.1347 69.3115 18.3102 69.9866 18.0036 70.9229C17.6973 71.8589 17.9648 72.8868 18.69 73.5582L50.1362 102.679C50.8855 103.373 51.2155 104.383 51.0206 105.381L42.8166 147.296C42.6277 148.263 43.0192 149.25 43.8213 149.829C44.6228 150.407 45.6897 150.473 46.557 149.995L84.1637 129.295C85.0374 128.814 86.1524 128.814 87.0251 129.295L124.632 149.995C125.018 150.208 125.444 150.313 125.868 150.313C126.397 150.313 126.923 150.15 127.367 149.829C128.169 149.25 128.561 148.263 128.372 147.296L120.168 105.382C119.973 104.383 120.303 103.373 121.053 102.679L152.499 73.5579ZM115.161 106.348L122.321 142.931L89.4973 124.864C88.306 124.208 86.9559 123.861 85.594 123.861C84.2319 123.861 82.8821 124.208 81.6905 124.864L48.8667 142.931L56.0272 106.348C56.5602 103.624 55.6581 100.867 53.6145 98.9746L26.1688 73.5572L63.4171 69.015C66.1912 68.677 68.5524 66.973 69.7333 64.4579L85.5944 30.682L101.455 64.4576C102.636 66.973 104.998 68.6767 107.772 69.0147L145.02 73.5572L117.574 98.9742C115.53 100.867 114.628 103.623 115.161 106.348Z" fill="#FC8801"/>
<path d="M106.578 84.7214C105.838 84.2569 104.91 84.2025 104.12 84.5763L102.057 85.5518C101.7 84.7779 100.964 84.2121 100.083 84.0942C100.473 83.0583 100.679 81.9456 100.679 80.7975C100.679 75.6277 96.4442 71.4219 91.2383 71.4219C88.8386 71.4219 86.5935 72.3171 84.8909 73.852C83.1884 72.3174 80.9429 71.4219 78.5432 71.4219C77.1346 71.4219 75.9928 72.5558 75.9928 73.9546C75.9928 75.3535 77.1349 76.4874 78.5432 76.4874C80.2906 76.4874 81.8604 77.52 82.5421 79.1177C82.9416 80.0541 83.8665 80.6623 84.8903 80.6623C85.9147 80.6623 86.8392 80.0541 87.2388 79.1177C87.9205 77.5197 89.49 76.4874 91.2373 76.4874C93.6303 76.4874 95.5772 78.4208 95.5772 80.7971C95.5772 82.2929 94.8118 83.6606 93.5303 84.4555C92.565 85.0541 92.116 86.2152 92.4299 87.3016C92.7435 88.388 93.7436 89.1368 94.8814 89.1368H97.1868V89.4535V94.8932V95.9866H89.8016C89.8009 95.9866 89.7999 95.9866 89.7992 95.9866H79.6717C79.667 95.9866 79.6623 95.9866 79.6573 95.9866H72.9428V89.1368H74.8981C76.0359 89.1368 77.0366 88.388 77.3496 87.3016C77.6632 86.2152 77.2142 85.0541 76.2492 84.4555C74.9673 83.6606 74.2023 82.2929 74.2023 80.7971C74.2023 79.3983 73.0605 78.2644 71.6519 78.2644C70.2433 78.2644 69.1014 79.3983 69.1014 80.7971C69.1014 81.9692 69.3171 83.1048 69.7227 84.159C68.6387 84.4511 67.8416 85.4349 67.8416 86.6037V98.5193C67.8416 99.9182 68.9834 101.052 70.392 101.052H76.5067L73.8245 113.668C73.5336 115.036 74.415 116.38 75.7932 116.669C75.9707 116.706 76.1479 116.724 76.3228 116.724C77.5027 116.724 78.5623 115.906 78.8161 114.714L81.7206 101.052H87.745L90.6498 114.714C90.9036 115.906 91.9628 116.724 93.1431 116.724C93.3176 116.724 93.4952 116.706 93.6727 116.669C95.0509 116.38 95.9326 115.036 95.6414 113.668L92.9589 101.052H99.7372C101.019 101.052 102.076 100.112 102.258 98.8899L104.119 99.7701C104.467 99.9344 104.841 100.016 105.215 100.016C105.69 100.016 106.163 99.8843 106.577 99.625C107.317 99.1608 107.766 98.3523 107.766 97.483V86.8627C107.768 85.9938 107.319 85.1853 106.578 84.7214ZM102.666 93.4721L102.29 93.2941V91.0529L102.666 90.875V93.4721Z" fill="#FC8801"/>
</g>
<defs>
<clipPath id="clip0_2_13">
<rect width="171.189" height="170" fill="white"/>
</clipPath>
</defs>
</svg>
